<svg width="44" height="72" viewBox="0 0 44 72" fill="none" xmlns="http://www.w3.org/2000/svg">
<g filter="url(#filter0_i_884_10167)">
<path fill-rule="evenodd" clip-rule="evenodd" d="M37.5457 6.49792C34.4633 3.38862 30.5432 1.27452 26.279 0.42172C22.0149 -0.43108 17.5974 0.0157206 13.583 1.70572C9.5686 3.39572 6.1367 6.25342 3.7197 9.91892C1.3026 13.5843 0.00840236 17.8937 2.36197e-06 22.3041H2.6028C2.6028 18.3942 3.74601 14.5722 5.88761 11.3219C8.02921 8.07172 11.073 5.53932 14.6336 4.04542C18.1942 2.55162 22.1115 2.16332 25.8897 2.92992C29.6678 3.69652 33.1369 5.58342 35.8577 8.35182C38.5785 11.1202 40.429 14.6455 41.174 18.4815C41.92 22.3176 41.527 26.2918 40.045 29.9012C38.5638 33.5105 36.0604 36.5926 32.8519 38.7573C29.6434 40.922 25.8741 42.072 22.0212 42.062C20.0407 42.059 18.1394 42.851 16.7323 44.266C15.3251 45.68 14.5262 47.602 14.51 49.611V72H17.0513H40.138V69.359H17.1128V67.092H40.138V64.45H17.1128V62.183H40.138V59.542H17.1128V57.275H40.138V54.634H17.1128V49.643C17.1155 48.32 17.6346 47.052 18.5564 46.116C19.4783 45.181 20.7278 44.654 22.0315 44.651C26.3829 44.641 30.6337 43.322 34.2472 40.862C37.8608 38.4017 40.675 34.9103 42.335 30.8284C43.995 26.7464 44.426 22.257 43.573 17.9267C42.721 13.5964 40.623 9.61952 37.5457 6.49792ZM9.6118 72V49.643C9.6145 46.317 10.9174 43.129 13.2344 40.778C15.5514 38.4265 18.6932 37.1044 21.9699 37.1016C24.8539 37.1016 27.6732 36.2337 30.0711 34.6078C32.4691 32.9818 34.338 30.6708 35.4417 27.9669C36.5454 25.263 36.8341 22.2877 36.2715 19.4173C35.7089 16.5468 34.3201 13.9102 32.2808 11.8407C30.2415 9.77122 27.6433 8.36192 24.8147 7.79102C21.9861 7.22002 19.0542 7.51302 16.3897 8.63302C13.7253 9.75302 11.4479 11.6496 9.84571 14.0831C8.24341 16.5165 7.3882 19.3775 7.3882 22.3041H4.7854C4.7834 18.8521 5.7904 15.4771 7.679 12.606C9.5676 9.73492 12.2529 7.49672 15.3953 6.17482C18.5376 4.85282 21.9958 4.50642 25.3322 5.17932C28.6686 5.85232 31.7334 7.51432 34.1387 9.95532C36.5441 12.3962 38.1819 15.5063 38.8451 18.8921C39.5082 22.2779 39.1668 25.7872 37.8641 28.976C36.5614 32.1649 34.3559 34.89 31.5267 36.8065C28.6974 38.7231 25.3716 39.745 21.9699 39.7429C19.3835 39.7456 16.9038 40.79 15.0749 42.645C13.246 44.501 12.2173 47.018 12.2146 49.643V72H9.6118ZM4.7854 49.643V72H7.3882V49.643C7.3882 45.717 8.9241 41.952 11.6585 39.1755C14.3928 36.3988 18.1017 34.8374 21.9699 34.8347C24.3993 34.8223 26.7707 34.08 28.7847 32.7014C30.7988 31.3228 32.3653 29.3696 33.2866 27.0884C34.2079 24.8072 34.4426 22.3001 33.9612 19.8837C33.4798 17.4672 32.3039 15.2495 30.5817 13.5106C28.8596 11.7717 26.6685 10.5894 24.2849 10.113C21.9012 9.63652 19.432 9.88722 17.1886 10.8335C14.9453 11.7798 13.0285 13.3792 11.68 15.4299C10.3315 17.4806 9.6119 19.8908 9.6118 22.3561H12.2146C12.2004 20.3951 12.7604 18.474 13.8237 16.8365C14.8869 15.1989 16.4055 13.9187 18.1868 13.1583C19.968 12.3978 21.9317 12.1914 23.8287 12.5651C25.7258 12.9388 27.4707 13.8759 28.8422 15.2574C30.2137 16.639 31.15 18.4028 31.5322 20.3251C31.9145 22.2474 31.7255 24.2416 30.9893 26.0548C30.2531 27.8679 29.0028 29.4184 27.3971 30.5094C25.7913 31.6004 23.9024 32.1829 21.9699 32.183C19.7119 32.1843 17.4762 32.637 15.3906 33.5152C13.3049 34.3934 11.4101 35.6798 9.8144 37.3011C8.2186 38.9224 6.9532 40.847 6.0903 42.964C5.2275 45.082 4.7841 47.351 4.7854 49.643ZM2.6028 72H2.36197e-06V49.643C-0.00269764 43.724 2.30951 38.0461 6.42871 33.8561C10.548 29.6662 16.1376 27.3065 21.97 27.2955C22.9428 27.2955 23.8938 27.0028 24.7026 26.4543C25.5115 25.9059 26.1419 25.1263 26.5142 24.2142C26.8865 23.3022 26.9839 22.2986 26.7941 21.3303C26.6043 20.3621 26.1359 19.4727 25.448 18.7746C24.7601 18.0766 23.8837 17.6012 22.9295 17.4086C21.9754 17.216 20.9864 17.3148 20.0877 17.6926C19.1889 18.0704 18.4207 18.7102 17.8802 19.531C17.3398 20.3519 17.0513 21.3169 17.0513 22.3041H14.4485C14.4472 21.3009 14.6407 20.3072 15.0181 19.38C15.3955 18.4528 15.9493 17.6101 16.6479 16.9002C17.3464 16.1904 18.1761 15.6272 19.0893 15.243C20.0025 14.8588 20.9814 14.661 21.97 14.661C23.9181 14.7339 25.7624 15.5706 27.1152 16.995C28.468 18.4194 29.2239 20.3206 29.2239 22.2989C29.2239 24.2772 28.468 26.1784 27.1152 27.6028C25.7624 29.0272 23.9181 29.8639 21.97 29.9368C16.8288 29.9506 11.9028 32.0328 8.2722 35.7268C4.6416 39.4209 2.6028 44.425 2.6028 49.643V72Z" fill="white"/>
</g>
<defs>
<filter id="filter0_i_884_10167" x="0" y="0" width="44" height="72" filterUnits="userSpaceOnUse" color-interpolation-filters="sRGB">
<feFlood flood-opacity="0" result="BackgroundImageFix"/>
<feBlend mode="normal" in="SourceGraphic" in2="BackgroundImageFix" result="shape"/>
<feColorMatrix in="SourceAlpha" type="matrix" values="0 0 0 0 0 0 0 0 0 0 0 0 0 0 0 0 0 0 127 0" result="hardAlpha"/>
<feOffset/>
<feGaussianBlur stdDeviation="30"/>
<feComposite in2="hardAlpha" operator="arithmetic" k2="-1" k3="1"/>
<feColorMatrix type="matrix" values="0 0 0 0 1 0 0 0 0 1 0 0 0 0 1 0 0 0 0.85 0"/>
<feBlend mode="normal" in2="shape" result="effect1_innerShadow_884_10167"/>
</filter>
</defs>
</svg>
