<svg width="44" height="72" viewBox="0 0 44 72" fill="none" xmlns="http://www.w3.org/2000/svg">
<g filter="url(#filter0_i_884_10164)">
<path fill-rule="evenodd" clip-rule="evenodd" d="M43.632 26.4007C42.995 29.8944 41.546 33.1834 39.4056 35.9946V36.0055C40.592 37.5633 41.576 39.2818 42.326 41.121C43.991 45.202 44.426 49.694 43.577 54.026C42.727 58.359 40.63 62.339 37.5527 65.462C34.4749 68.585 30.554 70.711 26.2857 71.572C22.0174 72.433 17.5937 71.989 13.5739 70.297C9.5541 68.605 6.1188 65.741 3.7027 62.066C1.2865 58.392 -0.00199768 54.073 2.32475e-06 49.655H2.5991C2.6191 53.541 3.7683 57.334 5.9028 60.559C8.0372 63.784 11.0619 66.298 14.5977 67.786C18.1335 69.273 22.0232 69.668 25.7791 68.921C29.5351 68.174 32.9903 66.318 35.7116 63.586C38.4023 60.823 40.23 57.317 40.967 53.505C41.703 49.692 41.315 45.744 39.8508 42.155C38.3869 38.5661 35.9121 35.4953 32.7367 33.3276C29.5614 31.16 25.8265 29.9918 22 29.9694H7.0707V27.3308H21.9482C21.9486 27.3308 21.949 27.3308 21.9494 27.3308C21.9497 27.3308 21.95 27.3308 21.9503 27.3308C22.9177 27.3285 23.8628 27.0362 24.6674 26.4905C25.4751 25.9426 26.1046 25.1638 26.4764 24.2527C26.8481 23.3415 26.9454 22.339 26.7559 21.3717C26.5663 20.4044 26.0985 19.516 25.4117 18.8186C24.7247 18.1213 23.8496 17.6464 22.8968 17.454C21.944 17.2616 20.9565 17.3603 20.059 17.7377C19.1615 18.1151 18.3944 18.7542 17.8547 19.5742C17.315 20.3942 17.027 21.3583 17.027 22.3445H14.4893C14.4842 21.0874 14.7854 19.8485 15.366 18.7381C15.9466 17.6278 16.7886 16.6804 17.817 15.9802C18.8455 15.2801 20.0285 14.849 21.2608 14.7253C22.4931 14.6016 23.7364 14.7891 24.88 15.2712C26.0236 15.7532 27.0321 16.5149 27.8157 17.4883C28.5992 18.4617 29.1336 19.6167 29.3711 20.8505C29.6087 22.0842 29.5421 23.3585 29.1772 24.5598C28.8124 25.7611 28.1606 26.8522 27.28 27.736L27.0593 27.9294C27.8774 28.1257 28.6837 28.3694 29.4742 28.6592C30.9112 26.8954 31.6955 24.6762 31.6902 22.386C31.7765 21.0362 31.5892 19.6827 31.1397 18.4093C30.6903 17.1359 29.9883 15.9697 29.0771 14.9827C28.166 13.9957 27.0651 13.209 25.8425 12.6711C24.62 12.1333 23.3017 11.8558 21.9693 11.8558C20.6369 11.8558 19.3186 12.1333 18.0961 12.6711C16.8735 13.209 15.7726 13.9957 14.8615 14.9827C13.9503 15.9697 13.2483 17.1359 12.7989 18.4093C12.3494 19.6827 12.1621 21.0362 12.2484 22.386H9.6493C9.6484 20.4067 10.1095 18.4554 10.9948 16.6919C11.88 14.9284 13.1643 13.4029 14.7423 12.2405C16.3203 11.0781 18.1471 10.3118 20.0731 10.0044C21.9991 9.6969 23.9694 9.8572 25.8227 10.4719C27.6759 11.0867 29.3592 12.1385 30.7348 13.5411C32.1104 14.9438 33.1391 16.6573 33.7365 18.5414C34.334 20.4255 34.4832 22.4264 34.172 24.3804C33.8626 26.3227 33.1069 28.1636 31.9664 29.7541C32.7416 30.154 33.4955 30.6016 34.2236 31.0956C35.5433 31.9909 36.7569 33.024 37.8469 34.1731C37.7836 34.1046 37.7199 34.0365 37.6558 33.9689C39.4917 31.456 40.713 28.536 41.219 25.4497C41.724 22.3635 41.5 19.1994 40.565 16.2184C39.6291 13.2374 38.0089 10.5248 35.8376 8.30449C33.6663 6.08429 31.0063 4.4198 28.0767 3.4484C25.1473 2.477 22.0323 2.2265 18.9886 2.7176C15.9451 3.2088 13.0601 4.4274 10.5716 6.273C8.0831 8.1186 6.0625 10.5384 4.6763 13.3327C3.2901 16.127 2.5782 19.2159 2.5991 22.3445H2.32475e-06C-0.00159768 18.7913 0.831903 15.2891 2.4313 12.1286C4.0306 8.9681 6.3496 6.2406 9.1956 4.1726C12.0417 2.1046 15.3326 0.755798 18.7952 0.238198C22.2578 -0.279302 25.792 0.0491985 29.1044 1.1966C32.4168 2.344 35.4118 4.2772 37.8406 6.8355C40.269 9.3939 42.062 12.5036 43.069 15.9064C44.076 19.3092 44.27 22.9069 43.632 26.4007ZM33.9005 30.8732C34.6293 31.3502 35.3297 31.8705 35.9981 32.4314C37.563 30.1949 38.5858 27.6151 38.9834 24.9016C39.3809 22.1882 39.1421 19.4178 38.2862 16.8157C37.4303 14.2137 35.9816 11.8534 34.0578 9.927C32.134 8.0005 29.7895 6.56219 27.2149 5.72899C24.6404 4.89579 21.9085 4.6912 19.2414 5.132C16.5743 5.5727 14.0473 6.6463 11.866 8.2654C9.6846 9.8845 7.9105 12.0035 6.6879 14.4499C5.4652 16.8963 4.82861 19.6012 4.82981 22.3445H7.4288C7.4277 20.018 7.9671 17.724 9.0032 15.6489C10.0393 13.5737 11.543 11.776 13.392 10.4016C15.241 9.0272 17.3833 8.1149 19.6448 7.7389C21.9063 7.3628 24.2233 7.53359 26.4076 8.23729C28.5919 8.94109 30.5819 10.1579 32.216 11.7891C33.85 13.4202 35.0821 15.4196 35.8121 17.6249C36.5421 19.8303 36.7494 22.1793 36.4173 24.4812C36.0851 26.7831 35.2228 28.9731 33.9005 30.8732ZM9.8588 61.981C13.0789 65.25 17.4462 67.086 22 67.086V67.076C26.5538 67.076 30.9211 65.239 34.1412 61.97C37.3612 58.701 39.1702 54.268 39.1702 49.645C39.1702 45.022 37.3612 40.588 34.1412 37.3188C30.9211 34.0498 26.5538 32.2133 22 32.2133H7.0707V34.8622H22C24.8819 34.8622 27.6991 35.7298 30.0953 37.3553C32.4915 38.9807 34.3591 41.291 35.462 43.994C36.5649 46.697 36.8534 49.671 36.2912 52.541C35.7289 55.41 34.3412 58.046 32.3034 60.115C30.2655 62.184 27.6692 63.593 24.8427 64.164C22.0162 64.734 19.0864 64.441 16.4239 63.322C13.7613 62.202 11.4856 60.306 9.8845 57.873C8.2834 55.441 7.4288 52.581 7.4288 49.655H4.82981C4.82981 54.278 6.6388 58.712 9.8588 61.981ZM17.2759 61.232C18.7737 61.861 20.379 62.185 22 62.183C23.6206 62.183 25.2253 61.859 26.7225 61.23C28.2197 60.6 29.5801 59.677 30.726 58.514C31.8719 57.35 32.7809 55.969 33.4011 54.449C34.0213 52.929 34.3405 51.3 34.3405 49.655C34.3405 48.01 34.0213 46.381 33.4011 44.861C32.7809 43.341 31.8719 41.96 30.726 40.796C29.5801 39.6329 28.2197 38.7101 26.7225 38.0805C25.2253 37.4509 23.6206 37.1269 22 37.1269H7.0707V39.7655H22C23.9267 39.7655 25.8101 40.345 27.412 41.432C29.014 42.519 30.2626 44.063 30.9999 45.87C31.7372 47.678 31.9301 49.666 31.5542 51.584C31.1783 53.503 30.2506 55.265 28.8882 56.648C27.5259 58.031 25.7901 58.973 23.9005 59.355C22.0108 59.736 20.0521 59.54 18.2721 58.792C16.4921 58.043 14.9707 56.776 13.9003 55.149C12.8299 53.523 12.2586 51.611 12.2586 49.655H9.6595C9.6582 51.301 9.9765 52.93 10.5962 54.451C11.2158 55.972 12.1248 57.353 13.271 58.517C14.4171 59.68 15.7781 60.603 17.2759 61.232ZM19.1258 56.7C20.037 57.083 21.0137 57.28 22 57.28C23.992 57.28 25.9023 56.477 27.3109 55.047C28.7194 53.617 29.5107 51.677 29.5107 49.655C29.5107 47.633 28.7194 45.693 27.3109 44.263C25.9023 42.833 23.992 42.03 22 42.03H7.0707V44.669H21.9591C22.9301 44.671 23.8786 44.965 24.6854 45.514C25.4922 46.062 26.1211 46.841 26.493 47.752C26.8649 48.662 26.9632 49.664 26.7755 50.631C26.5878 51.598 26.1225 52.488 25.4381 53.187C24.5143 54.118 23.2656 54.64 21.9642 54.64C20.6627 54.64 19.4141 54.118 18.4902 53.187C18.0322 52.724 17.6689 52.173 17.4213 51.567C17.1737 50.961 17.0466 50.311 17.0474 49.655H14.4893C14.4893 50.656 14.6836 51.648 15.061 52.573C15.4385 53.498 15.9917 54.339 16.6891 55.047C17.3866 55.755 18.2145 56.316 19.1258 56.7Z" fill="white"/>
</g>
<defs>
<filter id="filter0_i_884_10164" x="0" y="0" width="44" height="72" filterUnits="userSpaceOnUse" color-interpolation-filters="sRGB">
<feFlood flood-opacity="0" result="BackgroundImageFix"/>
<feBlend mode="normal" in="SourceGraphic" in2="BackgroundImageFix" result="shape"/>
<feColorMatrix in="SourceAlpha" type="matrix" values="0 0 0 0 0 0 0 0 0 0 0 0 0 0 0 0 0 0 127 0" result="hardAlpha"/>
<feOffset/>
<feGaussianBlur stdDeviation="30"/>
<feComposite in2="hardAlpha" operator="arithmetic" k2="-1" k3="1"/>
<feColorMatrix type="matrix" values="0 0 0 0 1 0 0 0 0 1 0 0 0 0 1 0 0 0 0.85 0"/>
<feBlend mode="normal" in2="shape" result="effect1_innerShadow_884_10164"/>
</filter>
</defs>
</svg>
